<?xml version="1.0" encoding="UTF-8" standalone="no"?>
<svg
   xmlns:dc="http://purl.org/dc/elements/1.1/"
   xmlns:cc="http://creativecommons.org/ns#"
   xmlns:rdf="http://www.w3.org/1999/02/22-rdf-syntax-ns#"
   xmlns:svg="http://www.w3.org/2000/svg"
   xmlns="http://www.w3.org/2000/svg"
   xmlns:sodipodi="http://sodipodi.sourceforge.net/DTD/sodipodi-0.dtd"
   xmlns:inkscape="http://www.inkscape.org/namespaces/inkscape"
   width="14"
   height="14"
   version="1.1"
   style="enable-background:new"
   id="svg8"
   sodipodi:docname="titlebutton-close-hover.svg"
   inkscape:version="0.92.2 2405546, 2018-03-11">
  <metadata
     id="metadata14">
    <rdf:RDF>
      <cc:Work
         rdf:about="">
        <dc:format>image/svg+xml</dc:format>
        <dc:type
           rdf:resource="http://purl.org/dc/dcmitype/StillImage" />
        <dc:title></dc:title>
      </cc:Work>
    </rdf:RDF>
  </metadata>
  <defs
     id="defs12" />
  <sodipodi:namedview
     pagecolor="#ffffff"
     bordercolor="#666666"
     borderopacity="1"
     objecttolerance="10"
     gridtolerance="10"
     guidetolerance="10"
     inkscape:pageopacity="0"
     inkscape:pageshadow="2"
     inkscape:window-width="1920"
     inkscape:window-height="960"
     id="namedview10"
     showgrid="false"
     inkscape:zoom="9.8333333"
     inkscape:cx="-39.508475"
     inkscape:cy="11.59322"
     inkscape:window-x="1366"
     inkscape:window-y="30"
     inkscape:window-maximized="1"
     inkscape:current-layer="svg8" />
  <path
     inkscape:connector-curvature="0"
     id="path2"
     d="M 7.0000613,14 C 10.86599,14 14,10.866 14,7 14,3.134 10.86599,0 7.0000613,0 3.1340186,0 -3e-7,3.134 -3e-7,7 c 0,3.866 3.1340189,7 7.0000616,7"
     style="fill:#aa0000;fill-opacity:1;fill-rule:evenodd;stroke:none" />
  <path
     inkscape:connector-curvature="0"
     id="path4"
     d="M 7.0000673,13.5001 C 10.589848,13.5001 13.5,10.5898 13.5,7 13.5,3.4101 10.589848,0.5 7.0000673,0.5 3.4101537,0.5 0.4999997,3.4101 0.4999997,7 c 0,3.5898 2.910154,6.5001 6.5000676,6.5001"
     style="fill:#d40000;fill-opacity:1;fill-rule:evenodd;stroke:none" />
  <path
     inkscape:connector-curvature="0"
     id="path4-3"
     d="m 4.1715732,4.1716 c -0.3917372,0.3917 -0.3917372,1.0224 0,1.4142 L 5.5857863,7 4.1715732,8.4142 c -0.3917372,0.3918 -0.3917372,1.0225 0,1.4142 0.3917371,0.3918 1.0224761,0.3918 1.4142131,0 l 1.414214,-1.4142 1.414214,1.4142 c 0.391737,0.3918 1.022476,0.3918 1.414213,0 0.3917367,-0.3917 0.3917367,-1.0224 0,-1.4142 L 8.4142143,7 9.8284273,5.5858 c 0.3917367,-0.3918 0.3917367,-1.0225 0,-1.4142 -0.391737,-0.3918 -1.022476,-0.3918 -1.414213,0 L 7.0000003,5.5858 5.5857863,4.1716 c -0.391737,-0.3918 -1.022476,-0.3918 -1.4142131,0 z"
     style="opacity:0.5;fill:#000000;fill-opacity:1;stroke:none;stroke-width:2;stroke-linecap:round;stroke-linejoin:round;stroke-miterlimit:4;stroke-dasharray:none;stroke-opacity:1;enable-background:new" />
</svg>
